<svg width="460" height="400"><g transform="translate(60,30)"><g transform="translate(0,300)" fill="none" font-size="10" font-family="sans-serif" text-anchor="middle"><path class="domain" stroke="#000" d="M0.5,6V0.5H370.5V6"></path><g class="tick" opacity="1" transform="translate(42.692307692307715,0)"><line stroke="#000" y2="6"></line><text fill="#000" y="9" dy="0.71em" transform="translate(-10,0)rotate(-45)" style="text-anchor: end;">2014</text></g><g class="tick" opacity="1" transform="translate(113.84615384615387,0)"><line stroke="#000" y2="6"></line><text fill="#000" y="9" dy="0.71em" transform="translate(-10,0)rotate(-45)" style="text-anchor: end;">2017</text></g><g class="tick" opacity="1" transform="translate(185,0)"><line stroke="#000" y2="6"></line><text fill="#000" y="9" dy="0.71em" transform="translate(-10,0)rotate(-45)" style="text-anchor: end;">2018</text></g><g class="tick" opacity="1" transform="translate(256.1538461538462,0)"><line stroke="#000" y2="6"></line><text fill="#000" y="9" dy="0.71em" transform="translate(-10,0)rotate(-45)" style="text-anchor: end;">2019</text></g><g class="tick" opacity="1" transform="translate(327.30769230769226,0)"><line stroke="#000" y2="6"></line><text fill="#000" y="9" dy="0.71em" transform="translate(-10,0)rotate(-45)" style="text-anchor: end;">2020</text></g></g><g fill="none" font-size="10" font-family="sans-serif" text-anchor="end"><path class="domain" stroke="#000" d="M-6,300.5H0.5V0.5H-6"></path><g class="tick" opacity="1" transform="translate(0,300.5)"><line stroke="#000" x2="-6"></line><text fill="#000" x="-9" dy="0.32em">0</text></g><g class="tick" opacity="1" transform="translate(0,263)"><line stroke="#000" x2="-6"></line><text fill="#000" x="-9" dy="0.32em">10</text></g><g class="tick" opacity="1" transform="translate(0,225.5)"><line stroke="#000" x2="-6"></line><text fill="#000" x="-9" dy="0.32em">20</text></g><g class="tick" opacity="1" transform="translate(0,188)"><line stroke="#000" x2="-6"></line><text fill="#000" x="-9" dy="0.32em">30</text></g><g class="tick" opacity="1" transform="translate(0,150.5)"><line stroke="#000" x2="-6"></line><text fill="#000" x="-9" dy="0.32em">40</text></g><g class="tick" opacity="1" transform="translate(0,113)"><line stroke="#000" x2="-6"></line><text fill="#000" x="-9" dy="0.32em">50</text></g><g class="tick" opacity="1" transform="translate(0,75.5)"><line stroke="#000" x2="-6"></line><text fill="#000" x="-9" dy="0.32em">60</text></g><g class="tick" opacity="1" transform="translate(0,38)"><line stroke="#000" x2="-6"></line><text fill="#000" x="-9" dy="0.32em">70</text></g><g class="tick" opacity="1" transform="translate(0,0.5)"><line stroke="#000" x2="-6"></line><text fill="#000" x="-9" dy="0.32em">80</text></g></g><rect x="14.230769230769255" y="296.25" width="56.92307692307692" height="3.75" fill="#69b3a2"></rect><rect x="85.3846153846154" y="296.25" width="56.92307692307692" height="3.75" fill="#69b3a2"></rect><rect x="156.53846153846155" y="30" width="56.92307692307692" height="270" fill="#69b3a2"></rect><rect x="227.6923076923077" y="82.5" width="56.92307692307692" height="217.5" fill="#69b3a2"></rect><rect x="298.8461538461538" y="71.25" width="56.92307692307692" height="228.75" fill="#69b3a2"></rect></g></svg>
