<svg width="460" height="400"><g transform="translate(60,30)"><g transform="translate(0,300)" fill="none" font-size="10" font-family="sans-serif" text-anchor="middle"><path class="domain" stroke="#000" d="M0.5,6V0.5H370.5V6"></path><g class="tick" opacity="1" transform="translate(42.692307692307715,0)"><line stroke="#000" y2="6"></line><text fill="#000" y="9" dy="0.71em" transform="translate(-10,0)rotate(-45)" style="text-anchor: end;">TaxonDetermination</text></g><g class="tick" opacity="1" transform="translate(113.84615384615387,0)"><line stroke="#000" y2="6"></line><text fill="#000" y="9" dy="0.71em" transform="translate(-10,0)rotate(-45)" style="text-anchor: end;">Attribution</text></g><g class="tick" opacity="1" transform="translate(185,0)"><line stroke="#000" y2="6"></line><text fill="#000" y="9" dy="0.71em" transform="translate(-10,0)rotate(-45)" style="text-anchor: end;">CollectingEvent</text></g><g class="tick" opacity="1" transform="translate(256.1538461538462,0)"><line stroke="#000" y2="6"></line><text fill="#000" y="9" dy="0.71em" transform="translate(-10,0)rotate(-45)" style="text-anchor: end;">Source</text></g><g class="tick" opacity="1" transform="translate(327.30769230769226,0)"><line stroke="#000" y2="6"></line><text fill="#000" y="9" dy="0.71em" transform="translate(-10,0)rotate(-45)" style="text-anchor: end;">TaxonName</text></g></g><g fill="none" font-size="10" font-family="sans-serif" text-anchor="end"><path class="domain" stroke="#000" d="M-6,300.5H0.5V0.5H-6"></path><g class="tick" opacity="1" transform="translate(0,300.5)"><line stroke="#000" x2="-6"></line><text fill="#000" x="-9" dy="0.32em">0</text></g><g class="tick" opacity="1" transform="translate(0,270.5)"><line stroke="#000" x2="-6"></line><text fill="#000" x="-9" dy="0.32em">500</text></g><g class="tick" opacity="1" transform="translate(0,240.5)"><line stroke="#000" x2="-6"></line><text fill="#000" x="-9" dy="0.32em">1,000</text></g><g class="tick" opacity="1" transform="translate(0,210.5)"><line stroke="#000" x2="-6"></line><text fill="#000" x="-9" dy="0.32em">1,500</text></g><g class="tick" opacity="1" transform="translate(0,180.5)"><line stroke="#000" x2="-6"></line><text fill="#000" x="-9" dy="0.32em">2,000</text></g><g class="tick" opacity="1" transform="translate(0,150.5)"><line stroke="#000" x2="-6"></line><text fill="#000" x="-9" dy="0.32em">2,500</text></g><g class="tick" opacity="1" transform="translate(0,120.5)"><line stroke="#000" x2="-6"></line><text fill="#000" x="-9" dy="0.32em">3,000</text></g><g class="tick" opacity="1" transform="translate(0,90.5)"><line stroke="#000" x2="-6"></line><text fill="#000" x="-9" dy="0.32em">3,500</text></g><g class="tick" opacity="1" transform="translate(0,60.5)"><line stroke="#000" x2="-6"></line><text fill="#000" x="-9" dy="0.32em">4,000</text></g><g class="tick" opacity="1" transform="translate(0,30.5)"><line stroke="#000" x2="-6"></line><text fill="#000" x="-9" dy="0.32em">4,500</text></g><g class="tick" opacity="1" transform="translate(0,0.5)"><line stroke="#000" x2="-6"></line><text fill="#000" x="-9" dy="0.32em">5,000</text></g></g><rect x="14.230769230769255" y="16.560000000000002" width="56.92307692307692" height="283.44" fill="#69b3a2"></rect><rect x="85.3846153846154" y="83.70000000000002" width="56.92307692307692" height="216.29999999999998" fill="#69b3a2"></rect><rect x="156.53846153846155" y="288.42" width="56.92307692307692" height="11.579999999999984" fill="#69b3a2"></rect><rect x="227.6923076923077" y="296.16" width="56.92307692307692" height="3.839999999999975" fill="#69b3a2"></rect><rect x="298.8461538461538" y="299.76" width="56.92307692307692" height="0.2400000000000091" fill="#69b3a2"></rect></g></svg>
